<svg width="16" height="16" viewBox="0 0 16 16" fill="none" xmlns="http://www.w3.org/2000/svg">
<path d="M3.66699 14.6667C3.38921 14.6667 3.1531 14.5695 2.95866 14.375C2.76421 14.1806 2.66699 13.9445 2.66699 13.6667V6.43335C2.66699 6.15558 2.76421 5.91946 2.95866 5.72502C3.1531 5.53058 3.38921 5.43335 3.66699 5.43335H4.83366V3.83335C4.83366 2.95558 5.14199 2.20835 5.75866 1.59169C6.37533 0.97502 7.12255 0.666687 8.00033 0.666687C8.8781 0.666687 9.62533 0.97502 10.242 1.59169C10.8587 2.20835 11.167 2.95558 11.167 3.83335V5.43335H12.3337C12.6114 5.43335 12.8475 5.53058 13.042 5.72502C13.2364 5.91946 13.3337 6.15558 13.3337 6.43335V13.6667C13.3337 13.9445 13.2364 14.1806 13.042 14.375C12.8475 14.5695 12.6114 14.6667 12.3337 14.6667H3.66699ZM8.00033 11.3334C8.35588 11.3334 8.65866 11.2111 8.90866 10.9667C9.15866 10.7222 9.28366 10.4278 9.28366 10.0834C9.28366 9.75002 9.15866 9.44724 8.90866 9.17502C8.65866 8.9028 8.35588 8.76669 8.00033 8.76669C7.64477 8.76669 7.34199 8.9028 7.09199 9.17502C6.84199 9.44724 6.71699 9.75002 6.71699 10.0834C6.71699 10.4278 6.84199 10.7222 7.09199 10.9667C7.34199 11.2111 7.64477 11.3334 8.00033 11.3334ZM5.83366 5.43335H10.167V3.83335C10.167 3.23335 9.95588 2.72224 9.53366 2.30002C9.11144 1.8778 8.60033 1.66669 8.00033 1.66669C7.40033 1.66669 6.88921 1.8778 6.46699 2.30002C6.04477 2.72224 5.83366 3.23335 5.83366 3.83335V5.43335Z" fill="#0BC23B"/>
</svg>
