<svg width="16" height="16" viewBox="0 0 16 16" fill="none" xmlns="http://www.w3.org/2000/svg">
<path fill-rule="evenodd" clip-rule="evenodd" d="M7.99996 0.666748C3.94987 0.666748 0.666626 3.94999 0.666626 8.00008C0.666626 12.0502 3.94987 15.3334 7.99996 15.3334C12.05 15.3334 15.3333 12.0502 15.3333 8.00008C15.3333 3.94999 12.05 0.666748 7.99996 0.666748ZM4.99996 6.00008C4.99996 5.4478 5.44767 5.00008 5.99996 5.00008C6.55224 5.00008 6.99996 5.4478 6.99996 6.00008C6.99996 6.55237 6.55224 7.00008 5.99996 7.00008C5.44767 7.00008 4.99996 6.55237 4.99996 6.00008ZM8.99996 6.00008C8.99996 5.4478 9.44767 5.00008 9.99996 5.00008C10.5522 5.00008 11 5.4478 11 6.00008C11 6.55237 10.5522 7.00008 9.99996 7.00008C9.44767 7.00008 8.99996 6.55237 8.99996 6.00008ZM4.93333 8.80012C5.22696 8.5799 5.64312 8.63853 5.86457 8.93068L5.86767 8.93463C5.87163 8.93964 5.87918 8.94902 5.8902 8.96216C5.91231 8.9885 5.94812 9.02957 5.99695 9.08052C6.09515 9.18299 6.24271 9.322 6.43378 9.46096C6.81849 9.74075 7.35035 10.0001 8 10.0001C8.64964 10.0001 9.18151 9.74075 9.56622 9.46096C9.75729 9.322 9.90485 9.18299 10.003 9.08052C10.0519 9.02957 10.0877 8.9885 10.1098 8.96216C10.1208 8.94902 10.1284 8.93964 10.1323 8.93463L10.1354 8.93068C10.3569 8.63853 10.773 8.5799 11.0667 8.80012C11.3612 9.02103 11.4209 9.4389 11.2 9.73345L11.1311 9.81933C11.092 9.86591 11.0367 9.929 10.9657 10.0031C10.8243 10.1506 10.6177 10.3449 10.3504 10.5393C9.81849 10.9262 9.01702 11.3335 8 11.3335C6.98298 11.3335 6.18151 10.9262 5.64955 10.5393C5.38229 10.3449 5.17568 10.1506 5.0343 10.0031C4.96333 9.929 4.908 9.86591 4.86891 9.81933C4.8453 9.7912 4.82247 9.76249 4.8 9.73345C4.57908 9.4389 4.63878 9.02103 4.93333 8.80012Z" fill="white"/>
</svg>
